<?xml version="1.0" ?><!DOCTYPE svg  PUBLIC '-//W3C//DTD SVG 1.1//EN'  'http://www.w3.org/Graphics/SVG/1.1/DTD/svg11.dtd'><svg width="512px" height="512px" viewBox="0 0 512 512" enable-background="new 0 0 512 512" id="Layer_1" version="1.1" xml:space="preserve" xmlns="http://www.w3.org/2000/svg" xmlns:xlink="http://www.w3.org/1999/xlink"><g><g><path d="M255.994,290.56c-9.915,0-19.736-1.333-29.191-3.96c-46.997-13.025-79.825-56.231-79.825-105.067c0-5.523,4.478-10,10-10    h198.045c5.522,0,10,4.477,10,10c0,48.828-32.823,92.029-79.819,105.058C275.777,289.223,265.944,290.56,255.994,290.56z     M167.543,191.532c4.048,35.666,29.479,66.06,64.608,75.796c7.718,2.145,15.737,3.232,23.843,3.232    c8.131,0,16.154-1.089,23.847-3.238c35.141-9.742,60.568-40.13,64.616-75.79H167.543z"/></g><g><path d="M282.531,430.85H229.48c-2.756,0-5.389-1.137-7.278-3.143c-1.89-2.006-2.868-4.702-2.704-7.453l8.441-141.539    c0.18-3.015,1.713-5.788,4.171-7.543c2.458-1.754,5.577-2.306,8.488-1.497c3.794,1.054,5.104,1.14,6.315,1.14    c0.703,0,1.52-0.038,2.554-0.085c1.65-0.076,3.703-0.17,6.526-0.17c2.838,0,4.899,0.096,6.557,0.174    c1.037,0.048,1.856,0.087,2.561,0.087c1.206,0,2.512-0.086,6.288-1.141c2.912-0.813,6.034-0.267,8.496,1.489    c2.461,1.755,3.997,4.529,4.177,7.547l8.441,141.539c0.164,2.75-0.814,5.447-2.704,7.453    C287.92,429.713,285.287,430.85,282.531,430.85z M240.095,410.85h31.822l-7.158-120.031c-1.047-0.009-2.067-0.057-3.142-0.107    c-1.524-0.071-3.252-0.152-5.623-0.152c-2.362,0-4.086,0.08-5.605,0.149c-1.072,0.049-2.092,0.096-3.135,0.105L240.095,410.85z"/></g><g><path d="M256.006,191.532c-5.522,0-10-4.477-10-10v-43.226c0-5.523,4.478-10,10-10s10,4.477,10,10v43.226    C266.006,187.055,261.528,191.532,256.006,191.532z"/></g><g><path d="M256.006,148.306c-5.522,0-10-4.477-10-10c0-31.516,25.641-57.156,57.156-57.156c5.522,0,10,4.477,10,10s-4.478,10-10,10    c-20.488,0-37.156,16.668-37.156,37.156C266.006,143.829,261.528,148.306,256.006,148.306z"/></g><g><path d="M278.82,148.306h-45.629c-5.522,0-10-4.477-10-10s4.478-10,10-10h45.629c5.522,0,10,4.477,10,10    S284.343,148.306,278.82,148.306z"/></g></g></svg>