<?xml version="1.0" ?><!DOCTYPE svg  PUBLIC '-//W3C//DTD SVG 1.1//EN'  'http://www.w3.org/Graphics/SVG/1.1/DTD/svg11.dtd'><svg width="512px" height="512px" viewBox="0 0 512 512" enable-background="new 0 0 512 512" id="Layer_1" version="1.1" xml:space="preserve" xmlns="http://www.w3.org/2000/svg" xmlns:xlink="http://www.w3.org/1999/xlink"><g><g><path d="M341.884,259.928h-0.379c-5.523,0-10-4.477-10-10s4.477-10,10-10h0.379c5.523,0,10,4.477,10,10    S347.407,259.928,341.884,259.928z"/></g><g><path d="M394.634,302.052H288.755c-5.523,0-10-4.477-10-10v-84.248c0-5.523,4.477-10,10-10h105.878c5.523,0,10,4.477,10,10v84.248    C404.634,297.575,400.157,302.052,394.634,302.052z M298.755,282.052h85.878v-64.248h-85.878V282.052z"/></g><g><path d="M394.634,412.484c-5.523,0-10-4.477-10-10V292.052c0-5.523,4.477-10,10-10s10,4.477,10,10v110.433    C404.634,408.007,400.157,412.484,394.634,412.484z"/></g><g><path d="M262.57,186.307H153.276c-5.523,0-10-4.477-10-10v-66.791c0-5.523,4.477-10,10-10H262.57c5.523,0,10,4.477,10,10v66.791    C272.57,181.83,268.093,186.307,262.57,186.307z M163.276,166.307h89.294v-46.791h-89.294V166.307z"/></g><g><path d="M223.103,217.425h-32.636c-5.523,0-10-4.477-10-10v-31.118c0-5.523,4.477-10,10-10h32.636c5.523,0,10,4.477,10,10v31.118    C233.103,212.948,228.626,217.425,223.103,217.425z M200.467,197.425h12.636v-11.118h-12.636V197.425z"/></g><g><path d="M117.366,412.484c-5.523,0-10-4.477-10-10v-194.68c0-5.523,4.477-10,10-10h171.389c5.523,0,10,4.477,10,10v49.524    c0,5.523-4.477,10-10,10s-10-4.477-10-10v-39.524H127.366v184.68C127.366,408.007,122.889,412.484,117.366,412.484z"/></g><g><path d="M288.755,267.328H117.366c-5.523,0-10-4.477-10-10v-49.524c0-5.523,4.477-10,10-10h171.389c5.523,0,10,4.477,10,10v49.524    C298.755,262.851,294.278,267.328,288.755,267.328z M127.366,247.328h151.389v-29.524H127.366V247.328z"/></g></g></svg>